<?xml version="1.0" standalone="no"?>
<!DOCTYPE svg PUBLIC "-//W3C//DTD SVG 20010904//EN"
 "http://www.w3.org/TR/2001/REC-SVG-20010904/DTD/svg10.dtd">
<svg version="1.0" xmlns="http://www.w3.org/2000/svg"
 width="1280.000000pt" height="1280.000000pt" viewBox="0 0 1280.000000 1280.000000"
 preserveAspectRatio="xMidYMid meet">

<g transform="translate(0.000000,1280.000000) scale(0.100000,-0.100000)"
fill="#000000" stroke="none">
<path d="M6020 11563 c0 -7 11 -13 24 -13 13 0 27 -6 30 -12 5 -10 7 -10 12 0
6 14 34 17 34 3 0 -5 11 -12 24 -15 14 -3 28 -16 32 -29 4 -12 15 -29 25 -38
17 -15 25 -54 21 -111 -2 -21 -7 -28 -22 -28 -15 0 -20 -7 -20 -25 0 -16 -6
-25 -15 -25 -9 0 -15 -10 -15 -26 0 -14 -7 -33 -16 -42 -13 -13 -15 -31 -12
-95 3 -54 1 -83 -7 -91 -7 -6 -16 -22 -19 -34 -4 -12 -12 -22 -17 -22 -5 0 -9
-7 -9 -15 0 -8 -7 -15 -15 -15 -8 0 -15 -4 -15 -10 0 -5 -11 -12 -25 -16 -24
-6 -36 -34 -15 -34 6 0 10 -4 10 -10 0 -5 -8 -10 -18 -10 -22 0 -52 -34 -52
-60 0 -11 7 -20 16 -20 8 0 13 -4 10 -9 -3 -5 6 -12 20 -15 15 -4 24 -10 20
-13 -6 -7 32 -43 45 -43 5 0 11 -11 15 -25 3 -14 10 -22 15 -19 5 3 9 -1 9 -8
0 -8 9 -21 20 -31 11 -9 20 -24 20 -32 0 -8 5 -15 10 -15 6 0 10 -18 10 -40 0
-29 -4 -40 -15 -40 -9 0 -15 -9 -15 -21 0 -11 -7 -27 -15 -35 -8 -9 -15 -29
-15 -45 0 -16 -4 -29 -10 -29 -5 0 -10 -9 -10 -20 0 -11 -7 -23 -15 -26 -9 -4
-15 -19 -15 -40 0 -19 -4 -34 -9 -34 -11 0 -23 -92 -15 -113 12 -33 74 15 74
58 0 16 6 25 15 25 10 0 15 10 15 29 0 16 7 36 15 45 8 8 15 32 15 56 0 25 4
39 10 35 6 -4 10 13 10 44 0 31 6 55 15 65 8 8 15 26 15 40 0 16 6 26 15 26 8
0 15 7 15 16 0 8 5 12 10 9 6 -3 10 -1 10 4 0 20 35 51 57 51 13 0 23 5 23 10
0 6 15 10 34 10 19 0 37 4 40 8 6 10 -25 38 -53 47 -21 6 -30 45 -11 45 6 0
10 6 10 14 0 8 6 21 13 28 18 20 37 50 43 71 4 9 10 17 15 17 5 0 9 17 10 38
0 34 17 92 18 65 1 -20 41 18 41 39 0 10 7 18 15 18 8 0 15 5 15 11 0 7 11 21
24 33 13 11 26 35 29 51 4 17 4 24 1 18 -9 -20 -48 -15 -67 7 -10 12 -17 37
-17 62 0 52 -28 128 -46 128 -8 0 -14 6 -14 13 0 8 -11 20 -25 27 -16 8 -25
22 -25 36 0 17 -7 25 -25 30 -14 3 -25 10 -25 15 0 5 -7 9 -15 9 -8 0 -15 6
-15 13 0 7 -10 14 -22 14 -13 1 -24 7 -26 13 -2 5 -10 10 -18 10 -8 0 -17 7
-20 15 -4 9 -19 15 -35 15 -20 0 -29 5 -29 16 0 12 -12 15 -65 13 -47 -2 -65
-6 -65 -16z"/>
<path d="M5865 11510 c3 -5 10 -10 16 -10 5 0 9 5 9 10 0 6 -7 10 -16 10 -8 0
-12 -4 -9 -10z"/>
<path d="M5760 11435 c0 -16 16 -20 24 -6 3 5 -1 11 -9 15 -9 3 -15 0 -15 -9z"/>
<path d="M5695 11395 c-11 -14 -26 -25 -32 -25 -7 0 -13 -7 -13 -15 0 -8 -4
-15 -10 -15 -5 0 -10 -4 -10 -10 0 -21 40 -10 45 13 4 12 16 27 28 32 12 6 23
18 25 28 5 24 -9 21 -33 -8z"/>
<path d="M5580 11255 c0 -8 5 -15 10 -15 6 0 10 7 10 15 0 8 -4 15 -10 15 -5
0 -10 -7 -10 -15z"/>
<path d="M5550 11195 c0 -8 -4 -15 -10 -15 -5 0 -10 -9 -10 -19 0 -12 -9 -21
-25 -25 -15 -4 -27 -16 -31 -31 -3 -14 -10 -25 -15 -25 -5 0 -9 -11 -9 -25 0
-16 -6 -25 -15 -25 -21 0 -19 -37 4 -62 16 -17 27 -19 57 -14 35 7 36 9 30 39
-4 18 -11 34 -16 35 -13 5 -13 32 0 32 6 0 10 11 10 25 0 20 5 25 25 25 26 0
35 24 13 34 -10 5 -10 7 0 12 14 7 16 54 2 54 -5 0 -10 -7 -10 -15z"/>
<path d="M7036 11183 c-13 -13 -5 -23 19 -23 30 0 31 -4 5 -30 -11 -11 -23
-38 -26 -60 -4 -22 -10 -40 -15 -40 -5 0 -9 -27 -9 -60 0 -47 -3 -60 -15 -60
-8 0 -15 -7 -15 -15 0 -8 -4 -15 -10 -15 -5 0 -10 -6 -10 -13 0 -12 -34 -47
-46 -47 -10 0 -34 -28 -34 -39 0 -6 -4 -11 -9 -11 -5 0 -12 -11 -15 -25 -4
-14 -11 -25 -16 -25 -6 0 -10 -6 -10 -14 0 -8 -6 -17 -12 -20 -10 -5 -10 -7 0
-12 6 -3 12 -15 12 -27 0 -32 -33 -107 -47 -107 -8 0 -13 -13 -13 -30 0 -20
-5 -30 -15 -30 -8 0 -15 -4 -15 -10 0 -5 11 -10 25 -10 25 0 65 -31 65 -50 0
-5 4 -10 9 -10 5 0 12 -9 16 -19 3 -11 15 -23 27 -27 16 -5 18 -8 7 -15 -11
-7 -10 -9 4 -9 9 0 17 -7 17 -15 0 -8 5 -15 10 -15 6 0 10 -9 10 -21 0 -11 7
-27 15 -36 19 -18 17 -119 -2 -135 -7 -6 -13 -19 -13 -29 0 -11 -4 -19 -9 -19
-5 0 -12 -16 -15 -35 -4 -19 -11 -35 -16 -35 -6 0 -10 -13 -10 -29 0 -29 -27
-93 -42 -99 -5 -2 -8 -8 -8 -14 0 -5 -7 -16 -15 -24 -8 -9 -15 -27 -15 -40 0
-14 -7 -32 -15 -40 -9 -9 -15 -34 -15 -60 0 -42 -1 -44 -25 -38 -16 4 -25 2
-25 -6 0 -6 -7 -19 -16 -27 -17 -18 -13 -85 6 -91 5 -2 10 -16 10 -32 0 -16 6
-31 13 -34 10 -5 10 -7 0 -12 -15 -7 -17 -34 -3 -34 5 0 12 -11 16 -25 3 -14
10 -25 15 -25 5 0 9 -29 9 -65 0 -51 3 -65 15 -65 9 0 15 -9 15 -25 0 -14 5
-25 11 -25 19 0 39 -28 39 -54 0 -16 6 -26 15 -26 8 0 15 7 15 15 0 8 7 15 15
15 8 0 15 7 15 15 0 8 5 15 10 15 6 0 10 16 10 35 0 19 -4 35 -10 35 -5 0 -10
11 -10 25 0 13 -8 29 -17 34 -12 7 -14 13 -7 18 6 5 14 25 18 46 4 20 11 37
16 37 6 0 10 16 10 35 0 31 3 35 25 35 18 0 25 5 25 20 0 11 7 20 15 20 8 0
15 5 15 10 0 6 11 10 25 10 14 0 25 5 25 11 0 16 25 37 54 45 14 3 26 10 26
15 0 5 5 9 11 9 14 0 39 25 39 39 0 6 -4 11 -10 11 -5 0 -10 5 -10 10 0 6 11
10 25 10 14 0 25 -4 25 -10 0 -5 11 -10 25 -10 16 0 25 6 25 15 0 8 -7 15 -15
15 -8 0 -15 5 -15 10 0 6 18 10 40 10 29 0 40 4 40 15 0 9 9 15 24 15 13 0 26
6 29 13 2 8 30 12 92 12 62 0 90 -4 93 -12 2 -7 15 -13 28 -13 13 0 24 -5 24
-11 0 -14 25 -39 39 -39 6 0 11 -6 11 -14 0 -8 4 -16 9 -18 5 -1 12 -66 16
-143 4 -90 10 -142 18 -148 9 -7 9 -10 0 -14 -8 -3 -13 -25 -13 -59 0 -53 0
-54 -30 -54 -28 0 -30 -3 -30 -35 0 -19 -4 -35 -10 -35 -5 0 -10 -13 -10 -30
0 -20 -5 -30 -15 -30 -10 0 -15 -11 -15 -35 0 -30 -3 -35 -23 -35 -12 0 -29 9
-37 20 -19 26 -50 26 -50 1 0 -17 -10 -20 -75 -26 -41 -4 -75 -11 -75 -16 0
-5 -11 -9 -25 -9 -20 0 -25 -5 -25 -25 0 -26 -11 -30 -59 -26 -20 2 -23 -1
-17 -23 5 -19 2 -26 -9 -26 -8 0 -15 -7 -15 -15 0 -10 -10 -15 -30 -15 -20 0
-30 5 -30 15 0 9 -9 15 -25 15 -24 0 -25 -2 -25 -70 0 -38 -4 -70 -9 -70 -9 0
-21 71 -21 126 0 28 -4 34 -21 34 -11 0 -27 7 -35 15 -9 8 -26 15 -40 15 -15
0 -24 -6 -24 -15 0 -9 -9 -15 -24 -15 -27 0 -36 -16 -36 -66 0 -27 -4 -34 -19
-34 -20 0 -31 -26 -31 -77 0 -23 -5 -33 -15 -33 -8 0 -15 -4 -15 -9 0 -5 -10
-13 -22 -17 -35 -11 -48 -30 -48 -68 0 -19 -7 -41 -15 -50 -8 -8 -15 -19 -15
-25 0 -6 -4 -11 -10 -11 -5 0 -12 -11 -16 -25 -3 -14 -10 -25 -15 -25 -5 0 -9
-18 -9 -40 0 -29 -4 -40 -15 -40 -10 0 -15 -11 -15 -35 0 -39 -25 -75 -52 -75
-10 0 -18 -4 -18 -10 0 -5 -7 -10 -15 -10 -8 0 -15 -7 -15 -15 0 -8 -4 -15 -9
-15 -5 0 -13 -10 -17 -22 -3 -12 -13 -28 -20 -36 -8 -7 -14 -31 -14 -53 0 -39
-17 -69 -39 -69 -6 0 -11 -7 -11 -15 0 -11 -12 -15 -50 -15 -27 0 -50 -4 -50
-10 0 -5 -7 -10 -15 -10 -8 0 -15 -7 -15 -15 0 -8 -5 -15 -11 -15 -14 0 -39
-25 -39 -39 0 -6 -7 -11 -15 -11 -8 0 -15 -7 -15 -15 0 -8 -4 -15 -10 -15 -5
0 -10 -16 -10 -35 0 -26 -4 -35 -17 -37 -47 -4 -60 -5 -91 -7 -32 -1 -33 -2
-30 -38 3 -35 1 -38 -24 -41 -16 -2 -28 -8 -28 -13 0 -5 -22 -9 -50 -9 -38 0
-50 -4 -50 -15 0 -11 -11 -15 -40 -15 -22 0 -40 -4 -40 -10 0 -5 -11 -10 -25
-10 -16 0 -25 -6 -25 -15 0 -12 -17 -15 -90 -15 -53 0 -90 -4 -90 -10 0 -5 -7
-10 -15 -10 -8 0 -15 -5 -15 -11 0 -15 -22 -35 -48 -43 -12 -4 -22 -12 -22
-17 0 -5 -25 -9 -55 -9 -42 0 -55 -3 -55 -15 0 -8 -5 -15 -11 -15 -15 0 -35
-22 -43 -48 -4 -12 -12 -22 -17 -22 -5 0 -9 -7 -9 -15 0 -8 -11 -17 -25 -21
-14 -3 -25 -10 -25 -15 0 -5 -22 -9 -49 -9 -27 0 -51 -4 -53 -10 -1 -5 -38
-13 -80 -16 -43 -4 -78 -11 -78 -15 0 -5 -16 -9 -36 -9 -19 0 -43 -7 -51 -16
-13 -13 -34 -15 -106 -12 -61 2 -92 7 -95 16 -2 7 -22 12 -53 12 -27 0 -49 5
-49 10 0 6 -11 10 -25 10 -14 0 -25 -4 -25 -10 0 -6 -33 -10 -80 -10 -44 0
-80 4 -80 9 0 5 -35 11 -77 13 -48 2 -78 8 -81 16 -2 7 -15 12 -28 12 -15 0
-24 6 -24 15 0 11 -11 15 -40 15 -22 0 -40 5 -40 10 0 6 -28 10 -65 10 -51 0
-65 3 -65 15 0 8 -7 15 -15 15 -8 0 -15 4 -15 10 0 5 -11 12 -25 16 -14 3 -25
10 -25 15 0 5 -26 9 -59 9 -50 0 -61 3 -77 25 -10 14 -24 25 -31 25 -7 0 -13
7 -13 15 0 11 -11 15 -36 15 -19 0 -42 7 -50 15 -9 8 -26 15 -40 15 -13 0 -24
5 -24 10 0 6 -7 10 -15 10 -8 0 -15 7 -15 15 0 8 -7 15 -15 15 -8 0 -15 4 -15
8 0 12 -56 42 -79 42 -16 0 -21 6 -21 25 0 20 -5 25 -24 25 -19 0 -26 7 -31
30 -4 17 -12 30 -19 30 -7 0 -18 11 -24 25 -7 14 -20 25 -31 25 -20 0 -31 18
-31 51 0 12 -7 19 -20 19 -11 0 -20 -4 -20 -10 0 -5 4 -10 9 -10 4 0 16 -29
26 -65 9 -36 21 -65 26 -65 5 0 9 -9 9 -20 0 -11 11 -38 25 -60 21 -33 25 -52
25 -110 0 -39 4 -70 10 -70 5 0 16 -13 25 -30 9 -16 22 -30 30 -30 9 0 15 -10
15 -25 0 -14 4 -25 9 -25 5 0 13 -10 17 -22 4 -13 21 -37 39 -54 18 -16 36
-40 39 -52 4 -12 12 -22 17 -22 5 0 9 -11 9 -24 0 -13 7 -26 15 -30 10 -4 15
-20 15 -51 0 -50 16 -75 49 -75 12 0 21 -4 21 -10 0 -13 37 -50 50 -50 6 0 10
-4 10 -9 0 -5 10 -13 21 -16 17 -6 19 -9 8 -16 -11 -7 -9 -9 6 -10 11 -1 23
-1 26 -1 4 1 10 -10 13 -23 4 -14 11 -25 16 -25 6 0 10 -7 10 -15 0 -8 7 -15
16 -15 8 0 12 -4 9 -10 -3 -5 1 -10 9 -10 9 0 16 -7 16 -15 0 -8 7 -15 15 -15
8 0 15 -4 15 -10 0 -5 11 -12 25 -16 15 -4 25 -13 25 -24 0 -10 10 -22 22 -26
12 -4 35 -18 50 -33 50 -47 57 -51 98 -51 22 0 40 -4 40 -9 0 -5 11 -12 25
-15 14 -4 25 -11 25 -16 0 -6 5 -10 11 -10 6 0 17 -7 25 -15 9 -8 29 -15 45
-15 18 0 28 -4 24 -10 -3 -6 5 -10 18 -10 14 0 27 -7 31 -15 3 -8 17 -15 31
-15 14 0 25 -4 25 -10 0 -5 10 -10 23 -10 12 0 31 -7 41 -15 11 -8 31 -15 45
-15 18 0 22 -3 13 -9 -9 -5 3 -10 34 -14 27 -3 50 -10 52 -16 2 -6 15 -11 28
-11 13 0 24 -4 24 -9 0 -5 23 -12 50 -16 28 -4 50 -11 50 -16 0 -5 24 -9 54
-9 31 0 56 -5 58 -11 2 -6 27 -14 56 -17 28 -2 50 -8 47 -12 -8 -12 35 -20
113 -20 41 0 72 -4 72 -10 0 -6 89 -10 248 -9 147 0 239 4 227 9 -12 5 37 9
130 9 83 0 144 -3 137 -8 -8 -4 31 -11 95 -14 59 -4 126 -11 148 -17 59 -14
381 -13 408 2 12 7 77 14 146 16 74 3 118 8 110 13 -9 5 18 9 68 9 55 0 83 -4
87 -12 5 -10 7 -10 12 0 3 6 23 12 45 12 28 0 39 4 39 15 0 11 12 15 50 15 28
0 50 4 50 9 0 5 14 12 30 16 17 4 30 11 30 16 0 5 11 9 25 9 16 0 25 6 25 15
0 9 9 15 24 15 14 0 27 4 30 9 3 5 22 12 41 15 19 4 35 11 35 16 0 6 11 10 25
10 14 0 25 5 25 11 0 8 12 10 35 6 22 -4 35 -2 35 5 0 8 27 9 86 5 73 -5 85
-4 80 8 -4 11 2 15 23 15 16 0 32 6 35 13 5 10 7 10 12 0 8 -18 76 -16 100 2
10 8 29 15 42 15 12 0 22 4 22 9 0 5 18 11 40 15 22 3 40 11 40 16 0 6 7 10
16 10 8 0 13 4 10 9 -3 5 6 12 21 16 15 3 34 14 42 24 9 10 33 21 54 25 35 7
37 5 37 -19 0 -14 -7 -28 -15 -31 -10 -4 -15 -20 -15 -50 0 -38 -3 -44 -25
-50 -22 -6 -25 -11 -25 -55 l0 -49 50 0 c28 0 50 5 50 10 0 6 9 10 19 10 11 0
26 7 35 15 8 8 22 15 31 15 9 0 26 11 39 25 18 20 33 25 70 25 25 0 46 -4 46
-10 0 -5 11 -10 25 -10 16 0 25 -6 25 -15 0 -8 7 -15 15 -15 8 0 15 -4 15 -10
0 -5 11 -12 24 -16 18 -4 26 -15 30 -40 4 -19 11 -34 16 -34 6 0 10 -36 10
-80 0 -47 4 -80 10 -80 6 0 10 -11 10 -25 0 -14 -4 -25 -10 -25 -5 0 -10 -16
-10 -36 0 -19 -7 -42 -15 -50 -11 -12 -15 -39 -15 -109 0 -65 -4 -95 -12 -99
-10 -5 -10 -7 0 -12 15 -7 16 -64 1 -64 -19 0 -36 -25 -43 -63 -4 -20 -11 -37
-16 -37 -6 0 -10 -18 -10 -40 0 -22 -4 -40 -9 -40 -5 0 -12 -11 -15 -25 -4
-14 -11 -25 -16 -25 -6 0 -10 -18 -10 -40 0 -29 -4 -40 -15 -40 -8 0 -15 -7
-15 -15 0 -8 -4 -15 -10 -15 -5 0 -10 -16 -10 -35 0 -19 5 -35 10 -35 6 0 10
-18 10 -39 0 -31 -4 -41 -20 -46 -11 -3 -23 -17 -26 -31 -3 -13 -10 -24 -15
-24 -5 0 -9 -16 -9 -35 0 -24 -5 -35 -15 -35 -8 0 -15 -7 -15 -15 0 -8 -4 -15
-9 -15 -4 0 -11 -26 -14 -57 -3 -32 -11 -59 -17 -61 -5 -2 -10 -10 -10 -19 0
-17 -53 -73 -69 -73 -6 0 -11 -11 -11 -25 0 -20 -5 -25 -25 -25 -16 0 -25 -6
-25 -15 0 -8 -7 -15 -15 -15 -11 0 -15 -11 -15 -40 0 -22 -4 -40 -10 -40 -5 0
-10 -9 -10 -20 0 -11 -7 -23 -15 -26 -8 -4 -15 -15 -15 -26 0 -11 -7 -26 -15
-34 -8 -9 -15 -29 -15 -45 0 -16 -4 -29 -10 -29 -5 0 -10 -7 -10 -15 0 -8 -4
-15 -10 -15 -5 0 -12 -11 -16 -25 -3 -14 -10 -25 -15 -25 -5 0 -9 -22 -9 -50
0 -38 -4 -50 -15 -50 -8 0 -15 -5 -15 -11 0 -6 -6 -17 -14 -25 -8 -7 -16 -19
-18 -26 -3 -8 -29 -13 -78 -13 -48 0 -75 -5 -78 -13 -2 -7 -12 -12 -22 -12
-12 0 -21 -10 -25 -30 -4 -16 -11 -30 -16 -30 -5 0 -9 -7 -9 -15 0 -8 -4 -15
-9 -15 -5 0 -13 -9 -16 -20 -3 -11 -17 -23 -31 -26 -13 -3 -24 -10 -24 -15 0
-5 -29 -9 -65 -9 -51 0 -65 -3 -65 -15 0 -8 -7 -15 -15 -15 -8 0 -15 -4 -15
-10 0 -5 -22 -10 -50 -10 -38 0 -50 -4 -50 -15 0 -8 -4 -15 -10 -15 -5 0 -10
-11 -10 -25 0 -20 -5 -25 -24 -25 -13 0 -26 -7 -30 -15 -3 -8 -17 -15 -31 -15
-14 0 -25 -4 -25 -10 0 -6 -28 -10 -65 -10 -51 0 -65 -3 -65 -15 0 -9 -9 -15
-25 -15 -14 0 -25 -4 -25 -10 0 -14 -27 -12 -34 3 -3 8 -8 7 -16 -5 -6 -10
-22 -18 -35 -18 -16 0 -25 -6 -25 -15 0 -8 -9 -15 -20 -15 -11 0 -20 -4 -20
-10 0 -5 -9 -10 -20 -10 -19 0 -20 -7 -20 -141 0 -141 -7 -169 -39 -169 -6 0
-11 -5 -11 -11 0 -6 -18 -28 -40 -50 -29 -29 -40 -48 -40 -69 0 -17 -4 -30
-10 -30 -5 0 -10 -11 -10 -25 0 -16 -6 -25 -15 -25 -8 0 -15 -5 -15 -11 0 -23
-30 -39 -75 -39 -51 0 -70 -13 -81 -54 -8 -32 -9 -32 -38 -1 -25 27 -42 32
-48 13 -5 -14 -48 21 -48 39 0 7 -4 13 -10 13 -5 0 -10 16 -10 35 0 19 -4 35
-9 35 -5 0 -13 9 -16 20 -4 11 -11 18 -16 15 -5 -4 -9 3 -9 13 0 12 -9 22 -22
25 -31 9 -58 -23 -58 -68 0 -24 -4 -35 -15 -35 -20 0 -19 -19 1 -27 13 -5 13
-7 2 -14 -10 -7 -10 -9 0 -9 6 0 12 -4 12 -10 0 -5 -7 -10 -15 -10 -8 0 -15
-6 -15 -14 0 -9 -17 -15 -50 -18 -35 -4 -56 -12 -69 -27 -21 -24 -37 -27 -45
-8 -5 10 -7 10 -12 0 -7 -15 -54 -17 -54 -3 0 6 -5 10 -11 10 -14 0 -33 20
-42 43 -4 10 -11 15 -17 12 -13 -8 -13 -235 0 -235 6 0 10 -22 10 -50 0 -27
-4 -50 -10 -50 -5 0 -10 5 -10 10 0 15 -57 12 -63 -2 -4 -10 -8 -9 -16 2 -9
12 -13 12 -19 3 -8 -13 -154 -26 -262 -24 -33 0 -57 -4 -62 -12 -5 -9 -14 -4
-31 16 -18 20 -34 27 -59 27 -19 0 -43 7 -54 15 -25 19 -51 19 -62 -1 -8 -14
-12 -14 -47 0 -20 9 -51 16 -67 16 -18 0 -38 9 -52 25 -16 17 -34 25 -56 25
-22 0 -40 8 -56 25 -13 14 -30 25 -39 25 -8 0 -15 4 -15 10 0 5 -18 13 -40 16
-22 4 -40 10 -40 15 0 5 -13 9 -28 9 -16 0 -37 7 -48 15 -10 8 -29 15 -41 15
-13 0 -23 5 -23 10 0 6 -15 10 -34 10 -21 0 -36 6 -40 15 -3 8 -15 15 -26 15
-21 0 -38 10 -68 43 -9 9 -24 17 -34 17 -10 0 -18 5 -18 10 0 6 -13 10 -30 10
-20 0 -30 5 -30 15 0 8 -7 15 -15 15 -8 0 -15 4 -15 9 0 5 -18 18 -40 29 -22
10 -37 22 -33 26 3 3 -1 6 -10 6 -10 0 -17 7 -17 15 0 8 -4 15 -10 15 -5 0
-10 6 -10 14 0 8 -6 21 -14 28 -7 8 -16 24 -20 35 -4 12 -16 25 -26 28 -10 3
-22 15 -25 26 -4 10 -11 19 -16 19 -5 0 -9 5 -9 10 0 6 -11 21 -25 34 -14 13
-25 28 -25 35 0 6 -7 11 -15 11 -8 0 -15 9 -15 20 0 11 -7 23 -15 26 -8 4 -15
17 -15 30 0 13 -4 24 -8 24 -5 0 -17 17 -28 37 -10 21 -25 44 -32 51 -6 7 -12
20 -12 28 0 8 -4 14 -10 14 -5 0 -10 7 -10 15 0 8 -5 15 -11 15 -5 0 -8 4 -4
9 3 5 1 12 -5 16 -5 3 -10 15 -10 26 0 10 -4 19 -10 19 -5 0 -10 8 -10 19 0
10 -7 32 -15 47 -8 16 -15 39 -15 52 0 13 -4 20 -10 17 -6 -4 -10 39 -11 122
-1 200 -7 287 -18 291 -7 2 -11 57 -11 158 0 85 -4 154 -9 154 -4 0 -12 32
-15 70 l-7 70 -40 0 c-21 0 -39 -5 -39 -10 0 -6 -11 -21 -25 -34 -18 -17 -25
-34 -25 -60 0 -20 -4 -36 -10 -36 -5 0 -10 -16 -10 -35 0 -24 -5 -35 -15 -35
-10 0 -15 -10 -15 -29 0 -16 -5 -31 -11 -33 -6 -2 -13 -51 -16 -116 -3 -61
-10 -112 -14 -112 -5 0 -9 -7 -9 -15 0 -8 -4 -15 -9 -15 -5 0 -13 -10 -17 -22
-8 -26 -57 -78 -73 -78 -6 0 -11 -4 -11 -9 0 -5 -15 -11 -33 -14 -24 -3 -37 1
-52 16 -13 14 -15 22 -7 25 14 4 16 32 2 32 -5 0 -10 -7 -10 -15 0 -16 -9 -19
-34 -9 -17 7 -22 44 -6 44 6 0 10 7 10 15 0 8 5 15 10 15 6 0 10 7 10 15 0 8
-4 15 -10 15 -5 0 -10 -5 -10 -11 0 -14 -25 -39 -39 -39 -6 0 -11 11 -11 25 0
14 5 25 11 25 24 0 39 30 39 77 0 44 -3 51 -31 67 -30 18 -31 18 -50 -3 -10
-11 -19 -25 -19 -31 0 -5 -11 -10 -25 -10 -14 0 -25 -4 -25 -10 0 -14 -48 -12
-52 2 -3 7 -21 12 -41 12 -30 0 -37 4 -42 24 -8 32 -29 52 -54 52 -26 0 -51
26 -51 54 0 28 -6 35 -28 29 -12 -3 -19 -16 -20 -36 -2 -17 -6 -34 -11 -37 -4
-3 -11 -23 -14 -45 -4 -22 -11 -41 -17 -43 -6 -2 -10 -54 -10 -133 0 -77 4
-128 9 -125 5 4 12 -7 16 -24 4 -16 11 -30 16 -30 5 0 9 -7 9 -15 0 -8 4 -15
10 -15 5 0 12 -10 15 -23 4 -13 17 -31 31 -41 14 -11 24 -29 24 -43 0 -14 4
-21 10 -18 7 4 10 -50 10 -154 l0 -161 39 0 c22 0 41 5 43 10 6 19 73 23 91 6
8 -9 20 -16 26 -16 6 0 11 -4 11 -10 0 -5 7 -10 15 -10 8 0 15 -7 15 -15 0 -9
9 -15 25 -15 16 0 25 -6 25 -15 0 -8 5 -15 11 -15 14 0 39 -25 39 -39 0 -6 7
-11 15 -11 8 0 15 -7 15 -15 0 -8 5 -15 10 -15 6 0 10 -9 10 -19 0 -10 7 -21
15 -25 8 -3 15 -17 15 -31 0 -16 6 -25 15 -25 8 0 15 -7 15 -15 0 -8 4 -15 10
-15 5 0 13 -12 16 -26 5 -19 9 -22 15 -12 6 8 9 -4 9 -34 0 -45 -1 -47 -27
-47 -51 1 -127 -14 -140 -27 -15 -15 -18 -114 -3 -114 6 0 10 -27 10 -60 0
-45 4 -62 15 -66 8 -4 15 -17 15 -30 0 -13 5 -24 10 -24 6 0 10 -35 10 -84 0
-47 4 -87 9 -90 15 -10 18 -80 4 -113 -7 -18 -13 -37 -13 -43 0 -15 49 -12 66
5 9 8 28 15 44 15 16 0 30 3 32 8 5 11 76 42 98 42 11 0 20 4 20 9 0 5 15 12
33 16 44 9 77 26 77 41 0 6 11 15 25 18 14 4 25 11 25 16 0 6 7 10 15 10 8 0
15 5 15 11 0 13 25 39 38 39 5 0 13 11 16 25 4 14 11 25 16 25 6 0 10 7 10 15
0 8 5 15 10 15 6 0 10 11 10 24 0 14 7 31 15 40 8 8 15 31 15 50 0 20 5 36 10
36 6 0 10 11 10 24 0 39 11 56 35 56 13 0 30 7 39 15 9 9 33 15 64 15 28 0 52
5 54 11 6 19 112 17 131 -3 9 -9 17 -21 17 -26 0 -6 7 -12 15 -16 8 -3 15 -15
15 -26 0 -11 7 -20 15 -20 8 0 19 -10 26 -22 6 -11 22 -31 35 -43 13 -12 24
-27 24 -34 0 -6 4 -11 9 -11 13 0 251 -237 251 -250 0 -5 5 -10 11 -10 7 0 22
-11 34 -24 12 -13 32 -27 43 -31 12 -3 22 -11 22 -16 0 -5 5 -9 11 -9 6 0 25
-16 43 -35 19 -19 38 -35 45 -35 6 0 11 -7 11 -15 0 -8 6 -15 13 -15 7 0 24
-11 39 -25 15 -14 32 -25 38 -25 5 0 10 -4 10 -10 0 -5 11 -12 25 -16 14 -3
25 -10 25 -15 0 -5 7 -9 15 -9 8 0 15 -4 15 -10 0 -5 11 -12 25 -16 14 -3 25
-12 25 -20 0 -8 7 -14 15 -14 8 0 15 -4 15 -10 0 -5 11 -12 25 -16 14 -3 25
-10 25 -15 0 -5 9 -9 20 -9 11 0 23 -7 26 -15 4 -8 12 -15 20 -15 8 0 14 -4
14 -10 0 -5 10 -10 23 -10 13 0 32 -7 43 -15 10 -8 27 -15 37 -15 9 0 17 -4
17 -10 0 -5 18 -10 41 -10 23 0 47 -7 55 -15 9 -8 29 -15 45 -15 16 0 29 -4
29 -10 0 -5 11 -10 24 -10 14 0 31 -7 40 -15 10 -10 36 -15 84 -15 39 0 72 -4
74 -10 2 -5 38 -13 81 -16 42 -4 77 -11 77 -15 0 -5 88 -9 195 -9 165 0 197
-2 201 -15 5 -13 49 -15 305 -15 259 0 299 -2 299 -15 0 -8 5 -15 10 -15 6 0
10 -11 10 -25 0 -16 6 -25 15 -25 9 0 15 9 15 25 0 14 5 25 10 25 6 0 10 7 10
15 0 8 7 15 15 15 8 0 15 7 15 15 0 9 9 15 25 15 27 0 34 15 10 24 -8 3 -15
17 -15 31 0 14 -4 25 -10 25 -5 0 -10 9 -10 19 0 10 -7 21 -15 25 -8 3 -15 12
-15 21 0 8 -4 15 -10 15 -5 0 -10 9 -10 21 0 11 -7 27 -15 35 -8 9 -15 33 -15
55 0 21 -4 39 -9 39 -5 0 -12 11 -15 25 -4 14 -11 25 -16 25 -6 0 -10 62 -10
160 0 121 3 160 13 160 8 0 12 18 12 53 1 41 6 58 23 75 12 12 22 28 23 34 2
40 12 63 34 82 14 12 25 29 25 39 0 9 5 17 10 17 6 0 10 7 10 15 0 9 7 18 15
21 8 4 15 15 15 26 0 28 46 65 73 60 4 -1 7 5 7 13 0 22 37 55 60 55 11 0 20
4 20 9 0 5 18 11 40 15 22 3 40 10 40 15 0 5 24 11 53 14 28 3 74 10 100 17
65 16 329 10 335 -7 2 -8 20 -13 43 -13 21 0 39 -4 39 -10 0 -5 10 -10 23 -10
25 0 60 -22 93 -57 12 -13 26 -23 33 -23 6 0 11 -4 11 -9 0 -5 9 -13 21 -16
22 -7 99 -79 99 -93 0 -4 8 -15 18 -24 27 -26 42 -46 42 -58 0 -5 7 -10 15
-10 8 0 15 -7 15 -15 0 -8 3 -15 8 -15 7 0 25 -30 38 -62 3 -10 10 -18 15 -18
5 0 9 -9 9 -21 0 -11 7 -27 15 -35 8 -9 15 -26 15 -40 0 -13 4 -24 9 -24 5 0
12 -13 16 -30 4 -16 11 -30 16 -30 15 0 10 -40 -6 -56 -8 -9 -15 -33 -15 -55
0 -21 -4 -39 -10 -39 -5 0 -10 5 -10 10 0 6 -6 10 -14 10 -8 0 -17 6 -20 13
-5 10 -7 10 -12 0 -3 -7 -12 -13 -20 -13 -8 0 -14 -4 -14 -10 0 -5 11 -10 25
-10 21 0 25 -5 25 -29 0 -16 7 -36 15 -45 8 -8 15 -24 15 -35 0 -12 5 -21 10
-21 6 0 10 -13 10 -29 0 -16 7 -36 15 -45 8 -8 15 -26 15 -41 0 -15 4 -24 10
-20 6 3 10 -3 10 -14 0 -11 7 -26 15 -35 10 -9 15 -34 15 -69 0 -31 5 -57 10
-59 6 -2 12 -41 14 -88 6 -104 -4 -227 -15 -208 -6 9 -9 4 -9 -14 0 -16 -4
-28 -10 -28 -5 0 -10 -18 -10 -40 0 -27 -5 -43 -15 -46 -8 -4 -15 -11 -15 -18
0 -6 -11 -23 -25 -38 -14 -15 -25 -32 -25 -38 0 -5 -7 -10 -16 -10 -8 0 -13
-4 -10 -9 4 -5 -7 -12 -24 -16 -16 -4 -30 -11 -30 -16 0 -5 -5 -9 -11 -9 -6 0
-17 -6 -24 -12 -37 -34 -47 -38 -85 -38 -29 0 -40 -4 -40 -15 0 -8 -7 -15 -15
-15 -9 0 -15 -9 -15 -25 0 -16 6 -25 15 -25 10 0 15 -10 15 -30 0 -20 5 -30
15 -30 9 0 15 -10 15 -26 0 -14 4 -23 10 -19 6 4 10 -11 10 -39 0 -26 6 -51
15 -60 9 -8 15 -33 15 -60 0 -25 5 -48 10 -51 17 -10 11 -25 -10 -25 -11 0
-20 -4 -20 -10 0 -5 5 -10 10 -10 6 0 10 -16 10 -36 0 -21 -4 -33 -10 -29 -6
4 -13 -7 -16 -24 -4 -17 -11 -28 -16 -25 -6 4 -8 -2 -6 -12 2 -11 7 -18 11
-16 4 1 27 2 52 2 38 0 49 5 84 40 22 22 44 40 50 40 6 0 11 7 11 15 0 8 5 15
10 15 6 0 23 11 38 25 15 14 31 25 37 25 5 0 19 18 29 40 11 22 23 40 28 40 4
0 8 7 8 15 0 8 6 15 14 15 8 0 18 9 21 20 3 11 11 20 16 20 5 0 9 13 9 29 0
16 4 31 10 33 5 2 11 18 12 37 1 18 8 36 15 38 8 3 13 23 13 53 0 33 5 50 15
54 10 4 15 20 15 51 0 50 16 75 49 75 12 0 21 6 21 15 0 9 9 15 25 15 14 0 25
5 25 10 0 6 7 10 15 10 8 0 15 4 15 10 0 5 11 12 25 16 14 3 25 11 25 16 0 12
39 48 52 48 4 0 8 6 8 14 0 18 32 76 43 76 4 0 7 11 7 25 0 14 5 25 10 25 6 0
10 9 10 19 0 11 7 26 15 35 8 8 15 29 15 46 0 41 20 60 64 60 25 0 36 4 36 15
0 9 9 15 23 15 12 0 31 7 41 15 11 8 32 15 48 15 15 0 28 4 28 9 0 5 11 12 25
15 14 4 25 11 25 16 0 6 5 10 11 10 6 0 17 6 24 12 33 30 45 38 55 38 5 0 10
7 10 15 0 8 5 15 11 15 14 0 139 125 139 138 0 5 9 12 20 15 12 3 20 14 20 26
0 12 5 21 10 21 6 0 10 6 10 14 0 8 7 16 15 20 8 3 15 17 15 31 0 14 4 25 8
25 5 0 23 29 41 65 18 36 37 65 42 65 5 0 9 11 9 25 0 14 4 25 9 25 5 0 11 18
15 40 3 22 11 40 16 40 6 0 10 16 10 36 0 19 7 42 15 50 9 9 15 34 15 59 0 24
5 47 10 50 6 3 10 30 10 59 0 35 5 58 15 66 11 9 15 33 15 86 0 40 5 76 10 79
6 4 10 65 10 150 l0 144 30 31 c17 17 30 37 30 45 0 8 6 18 13 22 14 8 47 73
47 92 0 6 5 11 10 11 6 0 10 7 10 17 0 22 32 93 42 93 4 0 8 18 8 40 0 22 4
40 9 40 4 0 11 27 15 60 4 33 11 60 16 60 6 0 10 113 10 290 0 251 -2 290 -15
290 -11 0 -15 12 -15 49 0 28 -4 53 -10 56 -5 3 -10 17 -10 31 0 13 -5 24 -11
24 -11 0 -10 25 7 163 3 26 10 47 15 47 5 0 9 37 9 83 0 89 7 130 21 121 5 -3
9 130 9 310 0 174 -4 316 -8 316 -14 0 -30 65 -24 95 2 15 1 30 -4 34 -13 9
-44 70 -44 87 0 8 -4 14 -10 14 -5 0 -10 7 -10 15 0 8 -7 15 -15 15 -8 0 -15
5 -15 11 0 15 -22 35 -47 41 -18 5 -23 2 -23 -12 0 -10 6 -20 12 -22 9 -3 12
-34 9 -114 -1 -60 -4 -110 -6 -112 -1 -2 -14 0 -29 4 -23 5 -26 11 -26 51 0
43 -16 73 -39 73 -6 0 -11 7 -11 15 0 8 -4 15 -9 15 -5 0 -12 11 -15 25 -6 22
-11 25 -56 25 -38 0 -50 -4 -50 -15 0 -9 -9 -15 -25 -15 -16 0 -25 6 -25 15 0
9 -9 15 -25 15 -16 0 -25 6 -25 15 0 12 -13 15 -55 15 -30 0 -55 5 -55 10 0 6
-9 10 -20 10 -11 0 -20 7 -20 15 0 8 -7 15 -15 15 -8 0 -15 7 -15 15 0 8 -9
15 -19 15 -11 0 -22 6 -24 13 -3 6 -6 2 -6 -10 -1 -28 -22 -30 -41 -3 -8 11
-20 20 -27 20 -7 0 -13 7 -13 15 0 8 -9 15 -20 15 -18 0 -36 15 -80 67 -5 7
-10 16 -10 22 0 5 -5 11 -12 13 -7 3 -14 32 -16 76 -3 57 -8 72 -22 77 -19 6
-30 33 -30 77 0 15 -4 30 -10 33 -5 3 -10 37 -10 74 0 38 -7 84 -15 104 -8 20
-15 59 -15 87 0 27 -4 50 -10 50 -5 0 -10 15 -10 33 0 17 -5 50 -11 72 -6 22
-13 52 -16 68 -3 15 -9 27 -13 27 -5 0 -12 25 -15 55 -4 30 -11 55 -16 55 -5
0 -9 6 -9 14 0 8 -7 16 -15 20 -11 4 -15 22 -15 75 0 49 5 74 15 85 8 8 15 32
15 55 0 23 4 41 9 41 5 0 12 23 16 50 4 28 11 50 16 50 5 0 9 8 9 19 0 10 7
35 15 54 10 23 15 69 15 127 0 53 4 90 10 90 15 0 12 57 -2 63 -10 4 -10 6 0
6 17 1 17 158 0 163 -8 3 -15 40 -20 99 -12 151 -19 199 -28 194 -11 -7 -23
50 -16 73 3 10 -1 27 -9 38 -8 10 -15 41 -15 67 0 29 -6 54 -15 63 -8 9 -15
26 -15 40 0 13 -4 24 -10 24 -5 0 -10 19 -10 42 0 47 -28 117 -47 118 -7 0
-13 11 -13 25 0 14 -3 25 -8 25 -7 0 -25 30 -38 63 -3 9 -13 17 -20 17 -12 0
-19 19 -15 43 0 4 -3 7 -8 7 -5 0 -12 11 -15 25 -4 14 -11 25 -16 25 -6 0 -10
5 -10 10 0 6 -11 23 -25 38 -14 15 -25 32 -25 39 0 7 -3 13 -7 13 -5 0 -17 19
-28 43 -11 23 -30 53 -42 67 -13 14 -23 30 -23 37 0 7 -6 13 -14 13 -8 0 -17
11 -20 25 -4 14 -11 25 -16 25 -6 0 -10 7 -10 15 0 8 -4 15 -8 15 -5 0 -17 16
-28 35 -10 19 -22 35 -26 35 -5 0 -8 6 -8 14 0 7 -7 19 -15 26 -8 7 -15 21
-15 31 0 11 -7 19 -15 19 -8 0 -15 7 -15 15 0 8 -4 15 -10 15 -5 0 -10 9 -10
20 0 11 -7 23 -15 26 -8 4 -15 10 -15 16 0 5 -6 16 -12 23 -30 33 -38 45 -38
55 0 5 -4 10 -10 10 -5 0 -12 11 -16 25 -3 14 -10 25 -15 25 -5 0 -9 5 -9 11
0 12 -25 39 -37 39 -12 0 -51 50 -69 87 -3 7 -39 47 -80 88 -41 41 -74 78 -74
81 0 6 -15 24 -52 64 -16 15 -28 33 -28 39 0 6 -7 11 -15 11 -8 0 -15 7 -15
15 0 8 -7 15 -15 15 -8 0 -15 4 -15 10 0 5 -11 12 -24 16 -13 3 -29 16 -36 30
-8 13 -18 24 -23 24 -5 0 -24 16 -43 35 -18 19 -37 35 -43 35 -6 0 -11 5 -11
11 0 17 -27 39 -48 39 -11 0 -25 7 -32 15 -7 8 -28 15 -46 15 -30 0 -34 3 -34
25 0 14 -5 25 -11 25 -5 0 -7 5 -4 10 3 6 0 10 -7 10 -15 0 -48 35 -48 50 0 6
-7 10 -15 10 -8 0 -15 5 -15 10 0 13 -57 70 -70 70 -6 0 -10 4 -10 8 0 5 -16
25 -35 45 -19 20 -35 45 -35 57 0 11 -7 20 -15 20 -8 0 -15 4 -15 9 0 5 -11
12 -25 15 -14 4 -25 11 -25 16 0 6 -6 10 -14 10 -8 0 -16 4 -18 8 -4 11 -64
23 -72 15z m414 -414 c0 -22 22 -49 39 -49 6 0 11 5 11 10 0 6 9 10 20 10 17
0 19 -5 14 -25 -4 -16 -2 -25 5 -25 19 0 71 -59 71 -80 0 -10 6 -21 13 -24 10
-5 10 -7 0 -12 -18 -8 -16 -34 2 -34 8 0 15 -5 15 -11 0 -7 10 -20 22 -30 24
-22 29 -23 26 -8 -2 6 2 13 8 16 8 2 15 -15 19 -46 5 -37 12 -52 26 -56 10 -4
19 -15 19 -26 0 -13 7 -19 22 -19 34 0 68 -46 68 -92 0 -21 5 -38 10 -38 6 0
10 -13 10 -30 0 -16 5 -30 10 -30 6 0 10 7 10 15 0 25 34 17 48 -12 15 -33 16
-53 2 -53 -5 0 -10 5 -10 10 0 6 -7 10 -15 10 -8 0 -15 -9 -15 -20 0 -11 5
-20 10 -20 6 0 10 -7 10 -15 0 -9 7 -18 15 -21 8 -4 15 -15 15 -26 0 -27 24
-48 54 -48 16 0 26 -6 26 -15 0 -11 -11 -15 -40 -15 -22 0 -40 -4 -40 -8 0
-19 -75 -35 -187 -39 -68 -3 -123 -9 -123 -14 0 -5 -18 -12 -40 -15 -22 -4
-40 -10 -40 -15 0 -5 -20 -9 -45 -9 -33 0 -45 -4 -45 -15 0 -11 -12 -15 -49
-15 -27 0 -51 -4 -53 -10 -1 -5 -31 -13 -65 -16 -35 -4 -63 -11 -63 -15 0 -5
-11 -9 -26 -9 -24 0 -25 2 -22 53 3 45 6 52 25 55 15 2 25 13 29 28 3 13 10
24 15 24 5 0 9 8 9 19 0 10 11 30 25 45 14 15 25 36 25 47 0 10 5 19 11 19 5
0 7 5 4 10 -3 6 -1 10 4 10 6 0 11 12 11 28 0 18 3 23 9 14 5 -9 10 0 15 27 3
23 11 41 16 41 6 0 10 25 10 56 0 32 4 53 9 49 17 -10 23 60 20 236 -3 126 -7
173 -16 177 -19 6 -16 52 2 52 8 0 15 5 15 10 0 6 5 10 10 10 6 0 10 -9 10
-21z m-600 -89 c0 -5 -4 -10 -10 -10 -5 0 -10 5 -10 10 0 6 5 10 10 10 6 0 10
-4 10 -10z m1360 -770 c0 -11 -4 -20 -10 -20 -5 0 -10 9 -10 20 0 11 5 20 10
20 6 0 10 -9 10 -20z m-1150 -320 c0 -5 -4 -10 -10 -10 -5 0 -10 5 -10 10 0 6
5 10 10 10 6 0 10 -4 10 -10z m1164 -1056 c33 -3 66 -12 73 -20 8 -8 21 -14
29 -14 8 0 12 -4 9 -10 -3 -5 3 -10 14 -10 12 0 21 -6 21 -14 0 -8 9 -18 20
-21 11 -3 20 -11 20 -16 0 -5 8 -9 18 -10 10 0 12 -3 5 -6 -7 -2 -13 -13 -13
-24 0 -14 -7 -19 -25 -19 -18 0 -26 -7 -31 -25 -3 -14 -10 -25 -15 -25 -5 0
-9 -5 -9 -11 0 -11 -24 -39 -34 -39 -12 0 -46 -41 -46 -55 0 -8 -4 -15 -10
-15 -5 0 -10 -6 -10 -13 0 -14 -35 -47 -50 -47 -6 0 -10 -4 -10 -9 0 -5 -18
-29 -40 -52 -22 -24 -40 -47 -40 -52 0 -4 -11 -18 -25 -31 -15 -14 -25 -34
-25 -50 0 -16 -10 -37 -25 -50 -14 -13 -25 -28 -25 -35 0 -6 -5 -11 -11 -11
-12 0 -39 -25 -39 -36 0 -4 -11 -17 -25 -30 -14 -13 -25 -34 -25 -48 0 -14
-11 -36 -25 -50 -14 -14 -25 -30 -25 -36 0 -5 -6 -10 -14 -10 -8 0 -18 -10
-22 -22 -8 -27 -41 -58 -61 -58 -20 0 -61 -44 -69 -74 -3 -14 -10 -26 -15 -26
-5 0 -9 -7 -9 -15 0 -8 -4 -15 -10 -15 -5 0 -10 -6 -10 -13 0 -25 -34 -54 -70
-60 -21 -4 -43 -18 -54 -32 -10 -14 -23 -25 -28 -25 -13 0 -38 -26 -38 -39 0
-6 -7 -11 -15 -11 -8 0 -15 -4 -15 -10 0 -5 -11 -12 -25 -16 -14 -3 -25 -10
-25 -15 0 -5 -7 -9 -15 -9 -9 0 -26 -11 -39 -25 -13 -14 -28 -25 -34 -25 -6 0
-12 -5 -14 -11 -2 -6 -25 -13 -51 -16 -26 -3 -47 -10 -47 -14 0 -5 -13 -9 -30
-9 -20 0 -30 -5 -30 -15 0 -16 -51 -28 -96 -23 l-29 3 3 85 c2 47 8 103 13
125 5 22 9 85 9 140 0 60 4 95 9 86 5 -8 10 10 13 50 3 35 10 65 16 67 7 2 12
12 12 23 0 10 4 19 9 19 5 0 12 14 16 30 4 17 11 30 16 30 5 0 9 7 9 15 0 8 7
15 15 15 9 0 15 9 15 21 0 23 30 79 42 79 4 0 8 7 8 15 0 8 7 15 15 15 10 0
15 10 15 28 0 21 2 24 10 12 8 -12 10 -11 10 6 0 12 11 30 25 40 14 10 28 33
31 51 3 18 10 33 15 33 5 0 9 5 9 10 0 6 9 19 20 30 11 11 25 20 30 20 6 0 10
7 10 15 0 8 5 15 10 15 6 0 10 7 10 16 0 8 5 12 10 9 6 -3 10 1 10 9 0 9 7 16
15 16 8 0 15 7 15 16 0 8 5 12 10 9 6 -3 10 1 10 9 0 9 6 16 14 16 7 0 21 11
32 24 10 14 28 27 40 30 13 4 26 15 29 26 3 11 10 20 15 20 5 0 15 6 22 13 7
6 32 21 55 32 22 11 39 23 37 26 -2 4 7 10 21 13 14 4 25 11 25 16 0 6 11 10
25 10 16 0 25 6 25 15 0 8 7 15 16 15 8 0 22 7 30 15 9 8 31 15 50 15 21 0 33
4 29 10 -4 6 11 10 39 10 25 0 48 5 52 11 6 11 24 10 198 -7z m-1400 -1709 c8
-8 17 -15 21 -15 4 0 13 -6 20 -12 33 -30 45 -38 55 -38 5 0 10 -6 10 -14 0
-8 11 -17 25 -20 16 -4 25 -13 25 -25 0 -10 7 -21 15 -25 8 -3 15 -10 15 -16
0 -5 -7 -10 -15 -10 -8 0 -15 -4 -15 -10 0 -5 -18 -13 -40 -16 -22 -4 -37 -10
-34 -15 3 -5 -9 -9 -25 -9 -42 0 -43 0 -66 -16 -11 -8 -30 -14 -42 -14 -13 0
-23 -4 -23 -10 0 -5 -16 -10 -35 -10 -20 0 -52 -7 -72 -15 -22 -10 -68 -15
-124 -15 -53 0 -89 -4 -89 -10 0 -5 -22 -10 -50 -10 -42 0 -50 3 -50 19 0 14
10 20 40 25 23 4 38 11 35 16 -3 6 1 10 9 10 9 0 16 5 16 10 0 6 8 14 18 17 9
4 22 12 29 17 34 30 43 36 53 36 5 0 10 4 10 9 0 5 11 12 25 15 14 4 25 11 25
16 0 6 5 10 11 10 12 0 39 25 39 37 0 12 34 40 59 48 12 3 21 11 21 16 0 5 5
9 11 9 6 0 17 7 25 15 9 8 24 15 34 15 10 0 25 -7 34 -15z m3026 -690 c0 -16
-6 -25 -15 -25 -15 0 -21 31 -8 43 13 14 23 6 23 -18z m50 -65 c0 -5 -7 -10
-15 -10 -8 0 -15 5 -15 10 0 6 7 10 15 10 8 0 15 -4 15 -10z m-6990 -1440 c0
-5 -4 -10 -10 -10 -5 0 -10 5 -10 10 0 6 5 10 10 10 6 0 10 -4 10 -10z m6450
-160 c0 -6 28 -10 63 -10 35 0 66 -2 69 -5 2 -3 0 -37 -5 -77 -8 -62 -13 -75
-43 -103 -19 -18 -34 -42 -34 -54 0 -12 -6 -21 -15 -21 -9 0 -15 -9 -15 -21 0
-12 -11 -32 -25 -45 -14 -13 -25 -26 -25 -29 0 -10 -28 -35 -39 -35 -6 0 -11
-11 -11 -25 0 -16 -6 -25 -15 -25 -9 0 -15 -9 -15 -24 0 -16 -7 -27 -22 -31
-11 -4 -32 -19 -45 -33 -23 -25 -25 -25 -35 -9 -11 21 -44 14 -69 -14 -9 -11
-21 -19 -28 -19 -6 0 -11 -7 -11 -15 0 -9 -9 -15 -21 -15 -19 0 -79 -49 -79
-65 0 -10 -23 -30 -42 -38 -10 -3 -18 -11 -18 -17 0 -5 -11 -10 -25 -10 -14 0
-25 -4 -25 -10 0 -5 -8 -10 -17 -10 -34 0 -63 -49 -63 -107 0 -46 -2 -53 -20
-53 -11 0 -20 5 -20 10 0 6 -5 10 -10 10 -6 0 -21 11 -33 24 -12 13 -32 26
-44 30 -13 4 -23 12 -23 17 0 14 -26 39 -39 39 -6 0 -11 7 -11 15 0 8 -7 15
-15 15 -8 0 -15 5 -15 10 0 6 -7 10 -15 10 -8 0 -15 5 -15 11 0 5 -4 7 -10 4
-5 -3 -10 -1 -10 4 0 6 -7 11 -15 11 -11 0 -15 11 -15 40 0 22 4 40 9 40 5 0
13 10 17 22 7 22 28 48 38 48 3 0 15 9 25 19 14 14 16 21 8 25 -7 2 -2 5 9 5
15 1 24 10 28 27 8 29 29 54 45 54 6 0 11 5 11 11 0 16 110 119 128 119 8 0
31 17 51 38 38 39 43 42 66 42 8 0 15 7 15 15 0 8 6 14 13 12 6 -1 11 4 10 11
-2 6 4 12 12 12 8 0 15 7 15 15 0 9 9 15 24 15 13 0 26 7 30 15 3 8 14 15 25
15 11 0 21 5 23 12 3 7 21 12 41 11 33 -1 37 2 37 23 0 19 5 24 24 24 14 0 31
7 40 15 8 8 32 15 55 15 23 0 41 5 41 10 0 6 18 10 40 10 22 0 40 -4 40 -10z"/>
<path d="M6590 11145 c0 -16 9 -19 34 -9 24 9 19 19 -9 22 -16 1 -25 -3 -25
-13z"/>
<path d="M5550 11020 c0 -5 5 -10 10 -10 6 0 10 5 10 10 0 6 -4 10 -10 10 -5
0 -10 -4 -10 -10z"/>
<path d="M5550 10970 c0 -5 7 -10 16 -10 8 0 12 5 9 10 -3 6 -10 10 -16 10 -5
0 -9 -4 -9 -10z"/>
<path d="M5080 10810 c0 -5 7 -10 15 -10 8 0 15 5 15 10 0 6 -7 10 -15 10 -8
0 -15 -4 -15 -10z"/>
<path d="M5550 10630 c0 -5 -11 -10 -25 -10 -16 0 -25 -6 -25 -15 0 -8 -6 -15
-13 -15 -7 0 -13 -10 -14 -22 -1 -11 -6 -24 -10 -27 -17 -13 -43 -74 -43 -102
0 -19 -5 -29 -15 -29 -12 0 -15 -13 -15 -62 l1 -63 38 -17 c20 -10 57 -18 82
-19 34 0 39 -2 24 -9 -16 -7 -12 -9 18 -9 46 -1 66 16 74 64 3 19 10 35 14 35
5 0 9 54 9 121 0 68 -4 118 -9 115 -5 -3 -12 5 -15 19 -4 14 -11 25 -16 25 -6
0 -10 7 -10 15 0 9 -9 15 -25 15 -14 0 -25 -4 -25 -10z m0 -240 c0 -36 -2 -40
-25 -38 -20 2 -25 8 -25 31 0 16 4 26 10 22 6 -3 10 1 10 9 0 9 7 16 15 16 11
0 15 -11 15 -40z"/>
<path d="M6430 10630 c0 -5 7 -10 15 -10 8 0 15 5 15 10 0 6 -7 10 -15 10 -8
0 -15 -4 -15 -10z"/>
<path d="M4313 10385 c-16 -17 -17 -35 -3 -35 6 0 10 7 10 15 0 8 7 15 15 15
8 0 15 5 15 10 0 15 -23 12 -37 -5z"/>
<path d="M4250 10315 c0 -8 5 -15 10 -15 6 0 10 7 10 15 0 8 -4 15 -10 15 -5
0 -10 -7 -10 -15z"/>
<path d="M6309 10271 c-15 -15 -30 -37 -33 -49 -4 -12 -12 -22 -17 -22 -5 0
-9 -13 -9 -30 0 -16 -3 -30 -8 -30 -7 0 -28 -68 -38 -126 -8 -44 48 -104 97
-104 22 0 29 -3 21 -9 -10 -6 -5 -10 16 -14 46 -9 72 2 72 30 0 13 4 21 10 18
6 -4 10 7 10 27 0 50 11 83 21 66 5 -7 9 32 9 95 0 59 -4 107 -9 107 -5 0 -13
9 -16 20 -3 11 -17 23 -31 26 -13 3 -24 10 -24 15 0 19 -46 7 -71 -20z m49
-225 c5 -24 -10 -38 -31 -30 -20 7 -23 40 -4 47 19 8 32 2 35 -17z"/>
<path d="M4170 10210 c0 -5 5 -10 10 -10 6 0 10 5 10 10 0 6 -4 10 -10 10 -5
0 -10 -4 -10 -10z"/>
<path d="M4276 10105 c-8 -8 -20 -15 -26 -15 -6 0 -8 -4 -5 -10 3 -5 -2 -10
-12 -10 -24 -1 -63 -34 -65 -57 -3 -40 2 -53 23 -53 11 0 17 -4 14 -10 -3 -5
3 -10 14 -10 18 0 21 -6 21 -49 0 -27 3 -56 6 -65 7 -17 44 -22 44 -6 0 6 7
10 15 10 8 0 15 7 15 15 0 8 4 15 10 15 15 0 50 33 44 42 -3 4 4 8 15 8 12 0
21 7 21 15 0 8 5 15 10 15 6 0 10 11 10 25 0 14 4 25 10 25 5 0 12 11 16 25 3
14 10 25 15 25 17 0 9 40 -11 60 -16 16 -33 20 -94 20 -53 0 -79 -4 -90 -15z"/>
<path d="M5390 9722 c0 -6 -17 -14 -37 -18 -21 -4 -44 -13 -51 -21 -7 -7 -20
-13 -28 -13 -8 0 -14 -4 -14 -10 0 -5 -9 -10 -21 -10 -11 0 -44 -24 -76 -56
-47 -46 -56 -62 -57 -92 l-1 -37 49 1 c29 0 52 6 54 12 2 8 33 12 93 12 72 0
89 -3 89 -15 0 -8 7 -15 15 -15 8 0 15 -4 15 -10 0 -5 10 -10 23 -10 13 0 32
-7 43 -15 27 -21 164 -21 164 0 0 8 7 15 15 15 8 0 15 7 15 16 0 8 5 12 10 9
6 -4 10 20 10 64 0 41 -4 71 -10 71 -5 0 -10 5 -10 11 0 11 -25 39 -35 39 -3
0 -16 11 -29 25 -13 14 -33 25 -44 25 -11 0 -22 5 -24 12 -6 16 -158 25 -158
10z"/>
<path d="M6650 9600 c0 -11 5 -20 10 -20 6 0 10 9 10 20 0 11 -4 20 -10 20 -5
0 -10 -9 -10 -20z"/>
<path d="M6850 8995 c0 -16 6 -25 15 -25 9 0 15 9 15 25 0 16 -6 25 -15 25 -9
0 -15 -9 -15 -25z"/>
<path d="M3161 8064 c0 -11 3 -14 6 -6 3 7 2 16 -1 19 -3 4 -6 -2 -5 -13z"/>
<path d="M3180 8014 c0 -21 4 -33 10 -29 6 3 10 19 10 36 0 16 -4 29 -10 29
-5 0 -10 -16 -10 -36z"/>
<path d="M3490 7085 c0 -8 5 -15 10 -15 6 0 10 7 10 15 0 8 -4 15 -10 15 -5 0
-10 -7 -10 -15z"/>
<path d="M3470 7049 c0 -5 5 -7 10 -4 6 3 10 8 10 11 0 2 -4 4 -10 4 -5 0 -10
-5 -10 -11z"/>
<path d="M3390 6919 c0 -5 5 -7 10 -4 6 3 10 8 10 11 0 2 -4 4 -10 4 -5 0 -10
-5 -10 -11z"/>
<path d="M3372 6860 c0 -14 2 -19 5 -12 2 6 2 18 0 25 -3 6 -5 1 -5 -13z"/>
<path d="M3280 6745 c0 -8 5 -15 10 -15 6 0 10 7 10 15 0 8 -4 15 -10 15 -5 0
-10 -7 -10 -15z"/>
<path d="M3072 6168 c-10 -40 -14 -129 -4 -100 2 6 10 12 18 12 8 0 14 7 14
15 0 8 -7 15 -15 15 -8 0 -15 5 -15 10 0 6 7 10 15 10 11 0 15 11 15 40 0 52
-15 51 -28 -2z"/>
<path d="M2370 6090 c0 -5 -23 -10 -50 -10 -36 0 -52 -4 -56 -15 -4 -8 -15
-15 -26 -15 -21 0 -81 -29 -86 -42 -2 -5 -12 -8 -22 -8 -10 0 -20 -7 -24 -15
-3 -8 -15 -15 -26 -15 -11 0 -20 -7 -20 -15 0 -8 -7 -15 -15 -15 -8 0 -15 -4
-15 -10 0 -5 -5 -10 -11 -10 -14 0 -39 -25 -39 -39 0 -6 -4 -11 -10 -11 -12 0
-50 -36 -50 -48 0 -4 -11 -19 -25 -34 -14 -15 -25 -32 -25 -38 0 -5 -4 -10
-10 -10 -14 0 -22 -62 -12 -90 9 -22 11 -23 17 -7 4 9 13 17 21 17 8 0 14 4
14 10 0 5 11 12 25 16 13 3 23 11 22 17 -1 6 9 13 23 15 14 2 28 8 31 13 9 15
172 16 177 1 2 -7 10 -12 17 -12 8 0 46 -31 84 -70 39 -38 75 -70 81 -70 5 0
10 -5 10 -11 0 -14 25 -39 39 -39 6 0 11 -5 11 -10 0 -15 25 -43 105 -118 14
-13 25 -29 25 -37 0 -8 11 -17 25 -21 14 -3 22 -10 19 -15 -3 -5 1 -9 9 -9 8
0 23 -11 33 -25 10 -14 24 -25 31 -25 7 0 13 -7 13 -15 0 -8 4 -15 10 -15 5 0
12 -11 16 -25 3 -14 9 -23 13 -20 4 2 15 -4 24 -13 25 -27 45 -42 57 -42 5 0
10 -11 10 -25 0 -16 6 -25 15 -25 8 0 15 -7 15 -15 0 -8 9 -15 21 -15 11 0 17
-4 14 -10 -3 -5 -1 -10 4 -10 6 0 11 -7 11 -15 0 -9 9 -15 25 -15 16 0 25 6
25 15 0 8 5 15 10 15 6 0 10 7 10 15 0 8 20 35 45 61 25 25 45 52 45 60 0 8 5
14 10 14 6 0 10 7 10 15 0 8 7 15 15 15 8 0 15 6 15 14 0 8 7 16 15 20 8 3 15
12 15 21 0 8 5 15 10 15 6 0 10 14 10 30 0 17 4 30 9 30 4 0 11 28 15 62 3 34
12 66 19 71 9 7 9 10 -1 14 -24 10 -42 35 -42 59 0 13 -4 24 -9 24 -5 0 -11
22 -15 49 -4 27 -11 51 -16 53 -6 2 -10 79 -10 186 -1 151 -4 182 -16 182 -8
0 -14 -8 -14 -17 0 -9 -5 -32 -12 -50 -11 -30 -15 -33 -56 -33 -26 0 -41 4
-37 10 3 6 0 10 -8 10 -8 0 -17 7 -21 15 -3 8 -14 15 -25 15 -11 0 -21 5 -23
10 -2 6 -13 12 -25 13 -13 0 -24 6 -27 13 -2 6 -21 14 -40 18 -20 4 -36 11
-36 16 0 6 -18 10 -40 10 -22 0 -40 5 -40 10 0 6 -58 10 -155 10 -97 0 -155
-4 -155 -10z m283 -560 c3 -12 0 -20 -7 -20 -6 0 -17 9 -24 20 -11 17 -10 20
7 20 10 0 21 -9 24 -20z"/>
<path d="M3711 5074 c0 -11 3 -14 6 -6 3 7 2 16 -1 19 -3 4 -6 -2 -5 -13z"/>
<path d="M1751 4814 c0 -11 3 -14 6 -6 3 7 2 16 -1 19 -3 4 -6 -2 -5 -13z"/>
<path d="M1770 4750 c0 -11 5 -20 10 -20 6 0 10 9 10 20 0 11 -4 20 -10 20 -5
0 -10 -9 -10 -20z"/>
<path d="M2320 3913 c0 -13 5 -23 10 -23 13 0 13 11 0 30 -8 12 -10 11 -10 -7z"/>
<path d="M5792 3260 c0 -14 2 -19 5 -12 2 6 2 18 0 25 -3 6 -5 1 -5 -13z"/>
<path d="M8360 2440 c0 -5 7 -10 15 -10 8 0 15 5 15 10 0 6 -7 10 -15 10 -8 0
-15 -4 -15 -10z"/>
<path d="M6882 2056 c-8 -21 -11 -40 -8 -43 3 -4 6 1 6 10 0 8 5 17 11 19 6 2
9 14 7 28 -3 21 -5 19 -16 -14z"/>
<path d="M7950 1716 c0 -10 9 -16 25 -16 14 0 25 5 25 10 0 6 -4 10 -9 10 -5
0 -16 3 -25 6 -11 4 -16 1 -16 -10z"/>
<path d="M7010 1500 c0 -5 5 -10 10 -10 6 0 10 5 10 10 0 6 -4 10 -10 10 -5 0
-10 -4 -10 -10z"/>
<path d="M7110 1370 c0 -5 7 -10 15 -10 8 0 15 5 15 10 0 6 -7 10 -15 10 -8 0
-15 -4 -15 -10z"/>
<path d="M8134 1329 c-3 -6 -1 -16 5 -22 8 -8 11 -5 11 11 0 24 -5 28 -16 11z"/>
<path d="M8100 1215 c0 -8 5 -15 10 -15 6 0 10 7 10 15 0 8 -4 15 -10 15 -5 0
-10 -7 -10 -15z"/>
<path d="M7350 1160 c0 -5 7 -10 15 -10 8 0 15 5 15 10 0 6 -7 10 -15 10 -8 0
-15 -4 -15 -10z"/>
<path d="M7950 1060 c0 -5 5 -10 10 -10 6 0 10 5 10 10 0 6 -4 10 -10 10 -5 0
-10 -4 -10 -10z"/>
</g>
</svg>
